<svg width="200" height="200" viewBox="0 0 200 200" fill="none" xmlns="http://www.w3.org/2000/svg">
<g opacity="0.4">
<path d="M62.5 187.5C69.4036 187.5 75 181.904 75 175C75 168.096 69.4036 162.5 62.5 162.5C55.5964 162.5 50 168.096 50 175C50 181.904 55.5964 187.5 62.5 187.5Z" fill="#15616D"/>
<path d="M150 187.5C156.904 187.5 162.5 181.904 162.5 175C162.5 168.096 156.904 162.5 150 162.5C143.096 162.5 137.5 168.096 137.5 175C137.5 181.904 143.096 187.5 150 187.5Z" fill="#15616D"/>
<path d="M31.125 17.525C30.8419 16.1087 30.077 14.8341 28.9604 13.918C27.8438 13.002 26.4443 12.5009 25 12.5H0V25H19.875L43.875 144.975C44.1581 146.391 44.923 147.666 46.0396 148.582C47.1562 149.498 48.5557 149.999 50 150H162.5V137.5H55.125L50.125 112.5H162.5C163.922 112.5 165.301 112.015 166.41 111.125C167.519 110.235 168.291 108.994 168.6 107.606L182.775 43.75H169.981L157.487 100H47.625L31.125 17.525Z" fill="#15616D"/>
<path d="M115.062 50L137.5 27.5625L128.688 18.75L106.25 41.1875L83.8125 18.75L75 27.5625L97.4375 50L75 72.4375L83.8125 81.25L106.25 58.8125L128.688 81.25L137.5 72.4375L115.062 50Z" fill="#15616D"/>
</g>
</svg>
