<svg width="200" height="200" viewBox="0 0 200 200" fill="none" xmlns="http://www.w3.org/2000/svg">
<path fill-rule="evenodd" clip-rule="evenodd" d="M71.725 41.475C63.4988 49.7043 58.0271 60.2821 56.0637 71.7511C54.1004 83.22 55.742 95.0156 60.7625 105.513C64.3976 113.088 69.6909 119.748 76.25 125C75.38 129.109 74.9609 133.3 75 137.5V139.625C73 138.25 71 136.875 69.125 135.375L21.875 181.25L12.5 173L60 126.875C52.6305 118.542 47.3931 108.545 44.7376 97.742C42.0821 86.9392 42.0876 75.6533 44.7538 64.8532C47.42 54.053 52.6672 44.0611 60.0449 35.7352C67.4227 27.4092 76.7106 20.998 87.1115 17.0517C97.5124 13.1054 108.716 11.7419 119.759 13.0784C130.803 14.4148 141.358 18.4113 150.517 24.7246C159.677 31.038 167.167 39.4797 172.346 49.3251C177.525 59.1705 180.237 70.1256 180.25 81.25C180.25 84.6 180 87.9375 179.5 91.25C175.911 87.9899 171.97 85.139 167.75 82.75V81.25C167.75 70.1248 164.451 59.2493 158.27 49.9989C152.09 40.7486 143.304 33.5388 133.026 29.2813C122.748 25.0239 111.438 23.9099 100.526 26.0804C89.6145 28.2509 79.5917 33.6082 71.725 41.475ZM109.725 95.925C115.184 92.2366 121.318 89.6633 127.774 88.3531C134.231 87.0429 140.883 87.0216 147.348 88.2904C153.812 89.5592 159.963 92.0932 165.445 95.7466C170.928 99.4 175.634 104.101 179.294 109.579C182.953 115.057 185.494 121.205 186.771 127.668C188.047 134.131 188.034 140.783 186.731 147.241C185.428 153.699 182.862 159.836 179.18 165.299C175.498 170.762 170.772 175.444 165.275 179.075C154.248 186.359 140.786 188.98 127.831 186.367C114.877 183.754 103.484 176.118 96.1425 165.13C88.8012 154.141 86.1089 140.693 88.6541 127.725C91.1993 114.757 98.7749 103.324 109.725 95.925ZM110.975 164.013C114.458 167.496 118.593 170.26 123.144 172.145C127.696 174.031 132.574 175.001 137.5 175C145.288 175.022 152.89 172.62 159.25 168.125L106.875 115.75C102.38 122.11 99.9775 129.712 100 137.5C100.002 147.445 103.954 156.982 110.987 164.013H110.975ZM115.75 106.888L168.125 159.25C172.62 152.89 175.022 145.288 175 137.5C175 127.554 171.049 118.016 164.017 110.984C156.984 103.951 147.446 100 137.5 100C129.712 99.9776 122.11 102.38 115.75 106.875V106.888Z" fill="#CADBDE"/>
</svg>
