<svg width="25" height="25" viewBox="0 0 25 25" fill="none" xmlns="http://www.w3.org/2000/svg">
<g clip-path="url(#clip0_2209_7708)">
<path d="M4.16621 6.68124L0.788086 3.30416L2.26204 1.8302L5.63913 5.20833H21.5162C21.6786 5.20831 21.8387 5.24626 21.9838 5.31912C22.1289 5.39199 22.2549 5.49777 22.3519 5.62801C22.4488 5.75825 22.514 5.90935 22.5421 6.06925C22.5703 6.22915 22.5607 6.39342 22.5141 6.54895L20.0141 14.8823C19.9498 15.097 19.818 15.2852 19.6382 15.419C19.4584 15.5528 19.2403 15.625 19.0162 15.625H6.24954V17.7083H17.7079V19.7917H5.20788C4.93161 19.7917 4.66666 19.6819 4.47131 19.4866C4.27596 19.2912 4.16621 19.0263 4.16621 18.75V6.68124ZM6.24954 7.29166V13.5417H18.2412L20.1162 7.29166H6.24954ZM5.72871 23.9583C5.31431 23.9583 4.91688 23.7937 4.62386 23.5007C4.33083 23.2077 4.16621 22.8102 4.16621 22.3958C4.16621 21.9814 4.33083 21.584 4.62386 21.291C4.91688 20.9979 5.31431 20.8333 5.72871 20.8333C6.14311 20.8333 6.54054 20.9979 6.83357 21.291C7.12659 21.584 7.29121 21.9814 7.29121 22.3958C7.29121 22.8102 7.12659 23.2077 6.83357 23.5007C6.54054 23.7937 6.14311 23.9583 5.72871 23.9583ZM18.2287 23.9583C17.8143 23.9583 17.4169 23.7937 17.1239 23.5007C16.8308 23.2077 16.6662 22.8102 16.6662 22.3958C16.6662 21.9814 16.8308 21.584 17.1239 21.291C17.4169 20.9979 17.8143 20.8333 18.2287 20.8333C18.6431 20.8333 19.0405 20.9979 19.3336 21.291C19.6266 21.584 19.7912 21.9814 19.7912 22.3958C19.7912 22.8102 19.6266 23.2077 19.3336 23.5007C19.0405 23.7937 18.6431 23.9583 18.2287 23.9583Z" fill="#474A51"/>
</g>
<defs>
<clipPath id="clip0_2209_7708">
<rect width="25" height="25" fill="white"/>
</clipPath>
</defs>
</svg>
