<svg width="16" height="16" viewBox="0 0 16 16" fill="none" xmlns="http://www.w3.org/2000/svg">
<path d="M7.99967 13.3334C10.933 13.3334 13.333 10.9334 13.333 8.00004C13.333 5.06671 10.933 2.66671 7.99967 2.66671C5.06634 2.66671 2.66634 5.06671 2.66634 8.00004C2.66634 10.9334 5.06634 13.3334 7.99967 13.3334ZM7.99967 1.33337C11.6663 1.33337 14.6663 4.33337 14.6663 8.00004C14.6663 11.6667 11.6663 14.6667 7.99967 14.6667C4.33301 14.6667 1.33301 11.6667 1.33301 8.00004C1.33301 4.33337 4.33301 1.33337 7.99967 1.33337ZM10.1997 10.8L9.33301 11.3334L7.33301 7.86671V4.66671H8.33301V7.60004L10.1997 10.8Z" fill="#828282"/>
</svg>
