<svg width="16" height="16" viewBox="0 0 16 16" fill="none" xmlns="http://www.w3.org/2000/svg">
<path d="M3.57101 2.85718H12.4282C12.9025 2.85715 13.3589 3.03864 13.7037 3.36442C14.0485 3.6902 14.2556 4.13557 14.2824 4.60918L14.2853 4.71432V11.2858C14.2853 11.7601 14.1038 12.2165 13.7781 12.5613C13.4523 12.9061 13.0069 13.1132 12.5333 13.14L12.4282 13.1429H3.57101C3.09665 13.1429 2.64025 12.9614 2.29545 12.6357C1.95065 12.3099 1.74358 11.8645 1.71672 11.3909L1.71387 11.2858V4.71432C1.71384 4.23996 1.89533 3.78356 2.22111 3.43876C2.54689 3.09396 2.99226 2.88689 3.46587 2.86003L3.57101 2.85718H12.4282H3.57101ZM13.4282 6.23146L8.1973 8.95146C8.14663 8.97779 8.09121 8.99373 8.03429 8.99835C7.97738 9.00296 7.92011 8.99615 7.86587 8.97832L7.80187 8.95146L2.57101 6.23146V11.2858C2.57102 11.5367 2.66539 11.7785 2.8354 11.9631C3.0054 12.1477 3.23861 12.2617 3.48872 12.2823L3.57101 12.2858H12.4282C12.6792 12.2857 12.9211 12.1913 13.1057 12.0212C13.2903 11.851 13.4042 11.6177 13.4247 11.3675L13.4282 11.2858V6.23146ZM12.4282 3.71432H3.57101C3.32004 3.71433 3.07826 3.8087 2.89364 3.97871C2.70903 4.14871 2.59509 4.38192 2.57444 4.63204L2.57101 4.71432V5.26518L7.99958 8.08804L13.4282 5.26518V4.71432C13.4281 4.46326 13.3337 4.2214 13.1636 4.03677C12.9934 3.85215 12.7601 3.73826 12.5099 3.71775L12.4282 3.71432Z" fill="#828282"/>
</svg>
