<svg width="16" height="17" viewBox="0 0 16 17" fill="none" xmlns="http://www.w3.org/2000/svg">
<path d="M7.99967 13.8333C10.933 13.8333 13.333 11.4333 13.333 8.49998C13.333 5.56665 10.933 3.16665 7.99967 3.16665C5.06634 3.16665 2.66634 5.56665 2.66634 8.49998C2.66634 11.4333 5.06634 13.8333 7.99967 13.8333ZM7.99967 1.83331C11.6663 1.83331 14.6663 4.83331 14.6663 8.49998C14.6663 12.1666 11.6663 15.1666 7.99967 15.1666C4.33301 15.1666 1.33301 12.1666 1.33301 8.49998C1.33301 4.83331 4.33301 1.83331 7.99967 1.83331ZM10.1997 11.3L9.33301 11.8333L7.33301 8.36665V5.16665H8.33301V8.09998L10.1997 11.3Z" fill="#FAFAFA"/>
</svg>
